<mxfile host="app.diagrams.net" modified="2023-06-08T18:02:30.908Z" agent="Mozilla/5.0 (Windows NT 10.0; WOW64) AppleWebKit/537.36 (KHTML, like Gecko) Chrome/84.0.4147.89 Safari/537.36 SLBrowser/7.0.0.12151 SLBChan/103" version="21.3.7" etag="OWTGnkoO1ljoRwmfuBxs" type="github">
  <diagram name="第 1 页" id="EU2ZxWTu_u-GxgTQfQ82">
    <mxGraphModel>
      <root>
        <mxCell id="0" />
        <mxCell id="1" parent="0" />
      </root>
    </mxGraphModel>
  </diagram>
</mxfile>
